WWE FRIDAY NIGHT SMACKDOWN 04_11_2011 HDTV  IN FLV FORMAT..Download**Enjoy**Seed


SCREENSHOTS:

       
http://bayimg.com/caKdGAADN
       
http://bayimg.com/cAKdhAAdN
       
http://bayimg.com/CaKDiaadN
    
http://bayimg.com/cAkDjAadn


DETAILS ARE:


Video
Format                           : AVC
Format/Info                      : Advanced Video Codec
Format profile                   : Main@L3.0
Format settings, CABAC           : Yes
Format settings, ReFrames        : 3 frames
Format settings, GOP             : M=1, N=54
Codec ID                         : 7
Duration                         : 1h 24mn
Bit rate                         : 730 Kbps
Width                            : 640 pixels
Height                           : 360 pixels
Display aspect ratio             : 16:9
Frame rate mode                  : Constant
Frame rate                       : 29.970 fps
Color space                      : YUV
Chroma subsampling               : 4:2:0
Bit depth                        : 8 bits
Scan type                        : Progressive
Bits/(Pixel*Frame)               : 0.106
Stream size                      : 439 MiB (84%)

Audio
Format                           : AAC
Format/Info                      : Advanced Audio Codec
Format profile                   : LC
Codec ID                         : 10
Duration                         : 1h 24mn
Bit rate                         : 129 Kbps
Channel(s)                       : 2 channels
Channel positions                : Front: L R
Sampling rate                    : 44.1 KHz
Compression mode                 : Lossy
Stream size                      : 77.3 MiB (15%)
